<svg xmlns="http://www.w3.org/2000/svg" width="77" height="57" viewBox="0 0 77 57" fill="none">
	<path d="M10.5412 56.7315C13.5278 49.8862 20.2039 45.1437 28.0219 45.1437C35.9278 45.1437 42.6917 50.0204 45.6345 57H56C56 57 55.2533 51.9443 50.4659 45.9938C47.4353 42.1908 45.2831 40.6248 41.6376 38.5667C30.2619 32.2583 19.0619 36.5534 19.0619 36.5534L28.549 11.4089L32.9412 26.3077C32.9412 26.3077 37.0259 26.2183 40.6275 27.4263C44.229 28.6342 46.1176 30.6923 46.1176 30.6923L34.0392 0H28.549H23.0588L0 57H10.4095C10.4095 57 10.4534 56.9105 10.5412 56.7315Z" fill="#0D0E0C"/>
	<ellipse cx="69.1898" cy="48.781" rx="7.65469" ry="7.67652" fill="#93F224"/>
</svg>